<svg width="112" height="112" viewBox="0 0 112 112" fill="none" xmlns="http://www.w3.org/2000/svg">
<g clip-path="url(#clip0_2148_1655)">
<rect x="7" y="7" width="98" height="98" rx="49" stroke="#E3646E" stroke-width="2"/>
<path d="M98.0177 79.4997C98.4193 79.5017 98.8182 79.5731 99.1964 79.7106L99.1954 79.7116C99.6274 79.8686 100.024 80.1083 100.363 80.4186C100.66 80.6901 100.907 81.0101 101.095 81.3649L101.172 81.5192L101.24 81.6774C101.37 81.996 101.453 82.3318 101.485 82.6745L101.497 82.8463L101.5 83.0182C101.498 83.4196 101.427 83.818 101.289 84.196L100.732 85.7272C101.038 85.6092 101.36 85.5341 101.688 85.5055L101.859 85.4948C102.205 85.4818 102.551 85.5198 102.885 85.6081L103.051 85.6569L103.215 85.7135C103.588 85.8528 103.935 86.0548 104.24 86.3112L110.24 91.3112L110.384 91.4381C110.665 91.6997 110.901 92.0052 111.083 92.3434L111.169 92.5153L111.246 92.6911C111.414 93.1064 111.5 93.5507 111.5 93.9997C111.5 94.5129 111.387 95.0203 111.169 95.485C110.979 95.8916 110.712 96.2571 110.384 96.5622L110.24 96.6891L104.24 101.689C103.891 101.983 103.486 102.205 103.051 102.343C102.611 102.483 102.148 102.535 101.688 102.495C101.227 102.455 100.779 102.324 100.369 102.11C99.96 101.896 99.5975 101.603 99.3019 101.248C99.0062 100.893 98.7831 100.483 98.6466 100.042C98.5102 99.6004 98.4632 99.1362 98.507 98.6764L98.5275 98.5045C98.5854 98.1054 98.7115 97.7187 98.9015 97.362L98.9874 97.2116C99.1945 96.8653 99.4599 96.5567 99.7726 96.3004L102.532 93.9997L99.7599 91.6891V91.6881C99.4225 91.4089 99.1407 91.0692 98.9288 90.6862L93.2892 106.195C93.0437 106.87 92.5965 107.455 92.0079 107.867C91.42 108.279 90.7198 108.498 90.0021 108.499L90.0031 108.5L90.0011 108.499L90.0001 108.5V108.499C89.5918 108.499 89.1872 108.427 88.8038 108.287V108.289C87.9319 107.972 87.2219 107.321 86.8292 106.48C86.4366 105.64 86.3937 104.677 86.7101 103.805V103.804L87.2667 102.273C86.9612 102.391 86.6401 102.466 86.3126 102.495C85.8525 102.535 85.3885 102.483 84.9484 102.343C84.5133 102.205 84.1096 101.982 83.7599 101.689L77.7599 96.6891C77.3657 96.3607 77.0489 95.9496 76.8312 95.485C76.6135 95.0203 76.5001 94.5129 76.5001 93.9997C76.5002 93.4866 76.6135 92.9799 76.8312 92.5153L76.9171 92.3434C77.129 91.949 77.415 91.5985 77.7599 91.3112L83.7599 86.3112L83.7657 86.3053L83.7726 86.3004C84.4422 85.7517 85.2897 85.472 86.1505 85.5114L86.3224 85.5231L86.4943 85.5436C87.3467 85.6675 88.1258 86.1024 88.6798 86.7672C89.2708 87.4767 89.5577 88.3913 89.4777 89.3112C89.3975 90.2311 88.9568 91.0827 88.2521 91.6794L88.2404 91.6891L85.4669 93.9997L88.2277 96.3004C88.5704 96.5813 88.855 96.9258 89.0695 97.3131L94.7101 81.8044C94.8671 81.3723 95.1077 80.9754 95.4181 80.6364L95.5372 80.5124C95.8225 80.2299 96.1551 79.998 96.5197 79.8278L96.6769 79.7594C97.0485 79.6077 97.4439 79.5203 97.8458 79.5026L98.0177 79.4997Z" fill="#82BC4F" stroke="#16181D" stroke-width="4"/>
</g>
<defs>
<clipPath id="clip0_2148_1655">
<rect width="112" height="112" fill="white"/>
</clipPath>
</defs>
</svg>
